<?xml version="1.0" standalone="no"?>
<svg xmlns:xlink="http://www.w3.org/1999/xlink" id="wave" style="transform:rotate(180deg); transition: 0.3s" viewBox="0 0 1440 100" version="1.1" xmlns="http://www.w3.org/2000/svg"><defs><linearGradient id="sw-gradient-0" x1="0" x2="0" y1="1" y2="0"><stop stop-color="rgba(138, 43, 226, 1)" offset="0%"/><stop stop-color="rgba(138, 43, 226, 1)" offset="100%"/></linearGradient></defs><path style="transform:translate(0, 0px); opacity:1" fill="url(#sw-gradient-0)" d="M0,10L30,8.3C60,7,120,3,180,13.3C240,23,300,47,360,50C420,53,480,37,540,36.7C600,37,660,53,720,50C780,47,840,23,900,18.3C960,13,1020,27,1080,38.3C1140,50,1200,60,1260,60C1320,60,1380,50,1440,51.7C1500,53,1560,67,1620,73.3C1680,80,1740,80,1800,71.7C1860,63,1920,47,1980,48.3C2040,50,2100,70,2160,78.3C2220,87,2280,83,2340,73.3C2400,63,2460,47,2520,48.3C2580,50,2640,70,2700,73.3C2760,77,2820,63,2880,63.3C2940,63,3000,77,3060,71.7C3120,67,3180,43,3240,40C3300,37,3360,53,3420,61.7C3480,70,3540,70,3600,65C3660,60,3720,50,3780,40C3840,30,3900,20,3960,28.3C4020,37,4080,63,4140,71.7C4200,80,4260,70,4290,65L4320,60L4320,100L4290,100C4260,100,4200,100,4140,100C4080,100,4020,100,3960,100C3900,100,3840,100,3780,100C3720,100,3660,100,3600,100C3540,100,3480,100,3420,100C3360,100,3300,100,3240,100C3180,100,3120,100,3060,100C3000,100,2940,100,2880,100C2820,100,2760,100,2700,100C2640,100,2580,100,2520,100C2460,100,2400,100,2340,100C2280,100,2220,100,2160,100C2100,100,2040,100,1980,100C1920,100,1860,100,1800,100C1740,100,1680,100,1620,100C1560,100,1500,100,1440,100C1380,100,1320,100,1260,100C1200,100,1140,100,1080,100C1020,100,960,100,900,100C840,100,780,100,720,100C660,100,600,100,540,100C480,100,420,100,360,100C300,100,240,100,180,100C120,100,60,100,30,100L0,100Z"/></svg>